<svg width="140" height="91" viewBox="0 0 140 91" fill="none" xmlns="http://www.w3.org/2000/svg">
<path d="M73.9819 10.1063C67.332 4.72705 59.299 1.33504 50.8071 0.320578C42.3153 -0.693811 33.7096 0.710495 25.9804 4.37195C18.2511 8.03341 11.7123 13.8033 7.11634 21.0177C2.52035 28.2321 0.0539337 36.5978 0.000874487 45.1524C-0.0521847 53.7069 2.31027 62.1026 6.81641 69.3735C11.3225 76.6444 17.7893 82.495 25.4725 86.2522C33.1558 90.0093 41.7433 91.5203 50.2471 90.6113C58.7509 89.7024 66.8253 86.4103 73.5414 81.1141L63.6945 68.6201C59.3302 72.0618 54.0831 74.201 48.5571 74.7917C43.0311 75.3824 37.4506 74.4005 32.4578 71.959C27.465 69.5175 23.2627 65.7156 20.3345 60.9907C17.4063 56.2659 15.8711 50.8101 15.9056 45.2511C15.94 39.6921 17.5428 34.2558 20.5294 29.5677C23.516 24.8795 27.7652 21.13 32.7879 18.7507C37.8106 16.3713 43.4028 15.4588 48.9211 16.118C54.4393 16.7773 59.6594 18.9815 63.9807 22.4771L73.9819 10.1063Z" fill="#E79525"/>
<path d="M114.127 37.9578H140V52.3357H114.127V37.9578Z" fill="#E79525"/>
<path d="M95.3081 3.45852C100.819 1.17518 106.725 2.27126e-05 112.69 2.27126e-05H132.669V15.9097H112.69C108.814 15.9097 104.976 16.6734 101.395 18.1571C97.8136 19.6409 94.5598 21.8157 91.819 24.5572C89.4277 26.9492 87.4678 29.7319 86.0217 32.7817H69.0658C69.5308 31.1773 70.0849 29.5967 70.7265 28.0474C73.0091 22.535 76.3548 17.5264 80.5725 13.3074C84.7902 9.08845 89.7974 5.74179 95.3081 3.45852Z" fill="#E79525"/>
<path d="M67.7961 52.3357C68.3479 55.9275 69.3298 59.4484 70.7265 62.8212C73.0091 68.3336 76.3548 73.3422 80.5725 77.5612C84.7902 81.7801 89.7974 85.1268 95.3081 87.4101C100.819 89.6933 106.725 90.8685 112.69 90.8685H132.669V74.9589H112.69C108.814 74.9589 104.976 74.1952 101.395 72.7114C97.8137 71.2277 94.5598 69.0529 91.819 66.3113C89.0782 63.5697 86.9041 60.315 85.4208 56.7328C83.9375 53.1508 83.174 49.3115 83.174 45.4343C83.174 42.9057 83.4987 40.3932 84.136 37.9578H45.4209V52.3357H67.7961Z" fill="#E79525"/>
</svg>
