<svg xmlns="http://www.w3.org/2000/svg" fill="none" viewBox="0 0 128 128">
  <g transform="translate(5, 22)">
    <path d="M64.6863 8.89749C58.872 4.16166 51.8483 1.17536 44.4234 0.282234C36.9985 -0.610826 29.4742 0.625514 22.7161 3.84903C15.9579 7.07255 10.2407 12.1523 6.2222 18.5038C2.20367 24.8553 0.0471572 32.2204 0.000764611 39.7518C-0.0456279 47.2832 2.01999 54.6747 5.95995 61.0759C9.89991 67.4772 15.5541 72.628 22.272 75.9357C28.9899 79.2435 36.4984 80.5738 43.9337 79.7735C51.3691 78.9733 58.429 76.075 64.3012 71.4122L55.6915 60.4126C51.8756 63.4427 47.2878 65.326 42.4561 65.8461C37.6244 66.3661 32.7451 65.5016 28.3796 63.3521C24.0142 61.2027 20.3399 57.8555 17.7796 53.6958C15.2193 49.5361 13.877 44.7328 13.9071 39.8387C13.9372 34.9446 15.3386 30.1585 17.95 26.0311C20.5613 21.9037 24.2766 18.6027 28.6682 16.508C33.0598 14.4132 37.9494 13.6098 42.7743 14.1902C47.5992 14.7706 52.1635 16.7112 55.9418 19.7886L64.6863 8.89749Z" />
    <path d="M83.333 3.04485C88.1513 1.03462 93.3156 1.99822e-05 98.5309 1.99822e-05H116V14.0068H98.5309C95.1418 14.0068 91.7859 14.6791 88.6548 15.9854C85.5237 17.2917 82.6787 19.2063 80.2823 21.62C78.1915 23.7259 76.4778 26.1757 75.2134 28.8608H60.3879C60.7946 27.4483 61.279 26.0567 61.8399 24.6927C63.8358 19.8396 66.7611 15.4301 70.4489 11.7157C74.1366 8.0014 78.5147 5.05503 83.333 3.04485Z" />
    <path d="M59.2777 46.0759C59.7602 49.2382 60.6188 52.3379 61.8399 55.3073C63.8358 60.1604 66.7611 64.5699 70.4489 68.2843C74.1366 71.9986 78.5147 74.945 83.333 76.9551C88.1513 78.9653 93.3156 80 98.5309 80H116V65.9932H98.5309C95.1418 65.9932 91.7859 65.3209 88.6548 64.0146C85.5237 62.7083 82.6787 60.7937 80.2823 58.38C77.8859 55.9663 75.9849 53.1008 74.688 49.9471C73.391 46.7935 72.7235 43.4135 72.7235 40C72.7235 37.7739 73.0074 35.5619 73.5647 33.4177H39.714V46.0759H59.2777Z" />
  </g>
  <style>
    path { fill: #F56600; }
    @media (prefers-color-scheme: dark) {
      path { fill: #F56600; }
    }
  </style>
</svg>
